# xmcd
#
# Track frame offsets:
#	150
#	14747
#	34332
#	51750
#	70927
#	92000
#	104785
#	125220
#	142717
#	159032
#	183715
#	199610
#
# Disc length: 3000 seconds
#
# Revision: 19
# Processed by: cddbd v1.5.2PL0 Copyright (c) Steve Scherf et al.
# Submitted via: audiograbber 1.83.01
#
DISCID=ab0bb60c
DTITLE=Kravitz, Lenny - Lenny
DYEAR=2001
DGENRE=Rock
TTITLE0=Battlefield of love
TTITLE1=If I could fall in love
TTITLE2=Yesterday is gone (my dear Kay)
TTITLE3=Stillness of heart
TTITLE4=Believe in me
TTITLE5=Pay to play
TTITLE6=A million miles away
TTITLE7=God save us all
TTITLE8=Dig in
TTITLE9=You were in my heart
TTITLE10=Bank robber man
TTITLE11=Let's get high
EXTD=
EXTT0=
EXTT1=
EXTT2=
EXTT3=
EXTT4=
EXTT5=
EXTT6=
EXTT7=
EXTT8=
EXTT9=
EXTT10=
EXTT11=
PLAYORDER=
